<?xml version="1.0" standalone="no"?>
<!DOCTYPE svg PUBLIC "-//W3C//DTD SVG 20010904//EN"
 "http://www.w3.org/TR/2001/REC-SVG-20010904/DTD/svg10.dtd">
<svg version="1.0" xmlns="http://www.w3.org/2000/svg"
 width="512.000000pt" height="512.000000pt" viewBox="0 0 512.000000 512.000000"
 preserveAspectRatio="xMidYMid meet">
<metadata>
Created by potrace 1.14, written by Peter Selinger 2001-2017
</metadata>
<g transform="translate(0.000000,512.000000) scale(0.100000,-0.100000)"
fill="#000000" stroke="none">
<path d="M770 4499 c-80 -15 -181 -73 -243 -138 -118 -124 -167 -285 -162
-536 2 -82 6 -161 9 -175 3 -14 11 -50 17 -80 38 -189 146 -409 278 -570 93
-114 275 -280 349 -319 12 -6 22 -20 22 -31 0 -11 -10 -25 -22 -31 -13 -7 -25
-15 -28 -18 -3 -4 -34 -30 -70 -58 -78 -61 -240 -230 -240 -250 0 -3 -6 -14
-14 -22 -24 -27 -91 -163 -108 -221 -154 -513 248 -1013 1027 -1277 91 -30
294 -84 370 -98 299 -53 426 -63 730 -59 143 1 274 5 290 7 17 2 57 8 90 12
90 11 96 11 145 19 87 14 95 16 120 22 14 3 41 8 60 11 71 11 347 96 450 138
101 41 233 103 275 128 346 212 519 396 603 642 30 89 34 112 38 207 9 220
-80 434 -258 618 -60 62 -158 147 -207 180 -56 37 -54 35 -43 71 6 19 14 52
16 74 3 22 10 69 15 105 5 36 9 232 8 435 l-2 370 -26 66 c-47 121 -98 199
-193 294 -226 226 -576 380 -1021 449 -29 4 -114 14 -199 22 -53 5 -385 5
-411 0 -11 -2 -51 -7 -90 -11 -244 -24 -494 -88 -712 -182 l-91 -40 -144 84
c-156 91 -260 135 -369 158 -76 16 -188 18 -259 4z m174 -483 c31 -6 141 -56
169 -78 18 -13 17 -17 -21 -79 -23 -35 -53 -100 -68 -144 -23 -69 -27 -98 -28
-208 -1 -141 -2 -142 -55 -37 -32 63 -66 159 -75 210 -3 19 -8 46 -11 60 -8
37 -8 180 -1 220 6 34 41 75 55 65 4 -2 20 -6 35 -9z"/>
</g>
</svg>
